<svg width="55" height="104" viewBox="0 0 55 104" fill="none" xmlns="http://www.w3.org/2000/svg">
<path d="M53.82 93.9169C54.4261 93.3824 54.3834 92.5159 53.7247 91.9815L42.9894 83.2723C42.3306 82.7378 41.3052 82.7378 40.6991 83.2723C40.093 83.8067 40.1357 84.6732 40.7945 85.2076L50.337 92.9492L41.5575 100.691C40.9514 101.225 40.9941 102.092 41.6529 102.626C42.3117 103.161 43.337 103.161 43.9431 102.626L53.82 93.9169ZM17.4917 1.17359C16.2025 0.299469 16.202 0.300018 16.2014 0.300643C16.2012 0.300961 16.2005 0.30167 16.1999 0.302299C16.1987 0.303569 16.1973 0.305153 16.1955 0.307061C16.1919 0.310878 16.1872 0.315982 16.1814 0.322363C16.1696 0.335125 16.1533 0.353018 16.1325 0.376002C16.0909 0.421977 16.0315 0.488355 15.9557 0.574934C15.8041 0.748089 15.5867 1.00209 15.3143 1.33533C14.7696 2.00178 14.005 2.98551 13.1073 4.27378C11.3122 6.84991 8.98328 10.6466 6.81802 15.5615C2.48634 25.3939 -1.19072 39.704 1.37635 57.6555L4.59448 57.4394C2.09912 39.9893 5.67517 26.1125 9.86224 16.6083C11.9563 11.855 14.2032 8.19599 15.919 5.73353C16.7768 4.5025 17.5014 3.5712 18.0071 2.95243C18.26 2.64308 18.458 2.41193 18.5905 2.26059C18.6568 2.18492 18.7067 2.12921 18.7389 2.09366C18.7549 2.07589 18.7666 2.06316 18.7736 2.05549C18.7771 2.05166 18.7795 2.04909 18.7807 2.04779C18.7813 2.04714 18.7816 2.04681 18.7816 2.0468C18.7816 2.04679 18.7814 2.04702 18.7814 2.04702C18.7811 2.04733 18.7808 2.04771 17.4917 1.17359ZM1.37635 57.6555C3.99457 75.9649 16.9082 85.1905 29.0979 89.7705C35.1612 92.0487 41.0444 93.1825 45.4017 93.7485C47.5837 94.0319 49.3921 94.1741 50.6612 94.2455C51.296 94.2812 51.7965 94.2993 52.1422 94.3084C52.315 94.3129 52.4492 94.3153 52.5421 94.3165C52.5886 94.317 52.6247 94.3174 52.6503 94.3175C52.663 94.3176 52.6731 94.3176 52.6805 94.3177C52.6843 94.3177 52.6873 94.3177 52.6896 94.3177C52.6908 94.3177 52.6921 94.3177 52.6927 94.3177C52.6937 94.3177 52.6947 94.3177 52.6272 92.9492C52.5598 91.5807 52.5604 91.5807 52.5608 91.5807C52.5607 91.5807 52.5609 91.5807 52.5607 91.5807C52.5604 91.5807 52.5593 91.5806 52.5576 91.5806C52.5543 91.5806 52.5482 91.5806 52.5395 91.5806C52.5222 91.5804 52.4943 91.5802 52.4563 91.5797C52.3802 91.5788 52.2634 91.5768 52.1085 91.5727C51.7986 91.5645 51.3365 91.548 50.7424 91.5145C49.5538 91.4477 47.8399 91.3133 45.7635 91.0436C41.6039 90.5033 36.0259 89.4244 30.3116 87.2774C18.946 83.007 7.03868 74.5318 4.59448 57.4394L1.37635 57.6555Z" fill="#463F39"/>
</svg>
