<?xml version="1.0" encoding="UTF-8"?>
<svg xmlns="http://www.w3.org/2000/svg" width="25" height="63" viewBox="0 0 25 63" fill="none">
  <path d="M10.7462 1.41456C10.7462 0.664726 11.475 0.0951205 12.3739 0.142311C13.2729 0.189499 14.0016 0.835613 14.0016 1.58544L10.7462 1.41456ZM13.5249 61.9633C12.8892 62.4602 11.8586 62.4061 11.223 61.8425L0.864419 52.6584C0.228765 52.0949 0.228766 51.2352 0.864419 50.7384C1.50007 50.2415 2.53067 50.2956 3.16632 50.8592L12.3739 59.0228L21.5815 51.8259C22.2172 51.3291 23.2478 51.3832 23.8834 51.9467C24.5191 52.5103 24.5191 53.37 23.8834 53.8668L13.5249 61.9633ZM14.0016 1.58544L14.0016 61.0283L10.7462 60.8574L10.7462 1.41456L14.0016 1.58544Z" fill="#463F39"></path>
</svg>
