<?xml version="1.0" encoding="UTF-8"?>
<svg xmlns="http://www.w3.org/2000/svg" xmlns:xlink="http://www.w3.org/1999/xlink" width="100" zoomAndPan="magnify" viewBox="0 0 75 44.999999" height="60" preserveAspectRatio="xMidYMid meet" version="1.0">
  <defs>
    <clipPath id="24cbf9eb73">
      <path d="M 15 23 L 25 23 L 25 31.324219 L 15 31.324219 Z M 15 23 " clip-rule="nonzero"></path>
    </clipPath>
    <clipPath id="8b66ab1ef8">
      <path d="M 19 27 L 29 27 L 29 31.324219 L 19 31.324219 Z M 19 27 " clip-rule="nonzero"></path>
    </clipPath>
    <clipPath id="b8c829565f">
      <path d="M 9.769531 13.324219 L 11 13.324219 L 11 31.324219 L 9.769531 31.324219 Z M 9.769531 13.324219 " clip-rule="nonzero"></path>
    </clipPath>
    <clipPath id="5238d40b50">
      <path d="M 16 13.324219 L 23 13.324219 L 23 20 L 16 20 Z M 16 13.324219 " clip-rule="nonzero"></path>
    </clipPath>
    <clipPath id="a309e2bc0f">
      <path d="M 31 24 L 39 24 L 39 31.324219 L 31 31.324219 Z M 31 24 " clip-rule="nonzero"></path>
    </clipPath>
    <clipPath id="e3d6fde647">
      <path d="M 39 24 L 41 24 L 41 31.324219 L 39 31.324219 Z M 39 24 " clip-rule="nonzero"></path>
    </clipPath>
    <clipPath id="43b0751a74">
      <path d="M 42 24 L 51 24 L 51 31.324219 L 42 31.324219 Z M 42 24 " clip-rule="nonzero"></path>
    </clipPath>
    <clipPath id="671daa02d1">
      <path d="M 51 24 L 58 24 L 58 31.324219 L 51 31.324219 Z M 51 24 " clip-rule="nonzero"></path>
    </clipPath>
    <clipPath id="22607dd4a8">
      <path d="M 57 24 L 64.816406 24 L 64.816406 31.324219 L 57 31.324219 Z M 57 24 " clip-rule="nonzero"></path>
    </clipPath>
  </defs>
  <g clip-path="url(#24cbf9eb73)">
    <path fill="#ececec" d="M 19.875 23.453125 L 15.488281 27.839844 L 19.3125 31.664062 L 20.4375 31.664062 L 24.238281 27.863281 L 24.265625 27.839844 Z M 19.902344 31.085938 L 16.660156 27.839844 L 19.875 24.625 L 23.113281 27.867188 Z M 19.902344 31.085938 " fill-opacity="1" fill-rule="nonzero"></path>
  </g>
  <path fill="#ececec" d="M 19.875 15.851562 L 15.488281 20.242188 L 19.875 24.628906 L 24.261719 20.242188 Z M 19.875 23.453125 L 16.660156 20.242188 L 19.875 17.027344 L 23.089844 20.242188 Z M 19.875 23.453125 " fill-opacity="1" fill-rule="nonzero"></path>
  <g clip-path="url(#8b66ab1ef8)">
    <path fill="#a6a6a6" d="M 23.695312 27.277344 L 19.320312 31.664062 L 28.042969 31.636719 Z M 21.320312 30.832031 L 23.695312 28.445312 L 26.058594 30.816406 Z M 21.320312 30.832031 " fill-opacity="1" fill-rule="nonzero"></path>
  </g>
  <path fill="#545454" d="M 16.066406 19.648438 L 11.679688 24.039062 L 16.066406 28.425781 L 20.429688 24.0625 L 20.457031 24.039062 Z M 19.28125 24.039062 L 16.066406 27.25 L 12.851562 24.039062 L 16.066406 20.824219 Z M 19.28125 24.039062 " fill-opacity="1" fill-rule="nonzero"></path>
  <g clip-path="url(#b8c829565f)">
    <path fill="#545454" d="M 10.800781 13.324219 L 9.769531 13.324219 L 9.769531 31.664062 L 10.800781 31.664062 Z M 10.800781 13.324219 " fill-opacity="1" fill-rule="nonzero"></path>
  </g>
  <g clip-path="url(#5238d40b50)">
    <path fill="#a6a6a6" d="M 22.070312 14.40625 C 21.484375 13.820312 20.703125 13.496094 19.875 13.496094 C 19.046875 13.496094 18.269531 13.820312 17.683594 14.40625 C 17.097656 14.992188 16.773438 15.769531 16.773438 16.597656 C 16.773438 17.429688 17.097656 18.207031 17.683594 18.792969 C 18.265625 19.378906 19.046875 19.699219 19.875 19.699219 C 20.703125 19.699219 21.484375 19.378906 22.070312 18.792969 C 23.277344 17.585938 23.277344 15.617188 22.070312 14.40625 Z M 21.484375 18.207031 C 20.597656 19.09375 19.15625 19.09375 18.269531 18.207031 C 17.839844 17.777344 17.601562 17.207031 17.601562 16.601562 C 17.601562 15.992188 17.839844 15.421875 18.269531 14.992188 C 18.699219 14.5625 19.269531 14.328125 19.875 14.328125 C 20.480469 14.328125 21.050781 14.5625 21.480469 14.992188 C 22.367188 15.878906 22.367188 17.320312 21.480469 18.207031 " fill-opacity="1" fill-rule="nonzero"></path>
  </g>
  <g clip-path="url(#a309e2bc0f)">
    <path fill="#545454" d="M 38.167969 31.539062 L 37.125 31.539062 L 34.292969 27.964844 L 32.722656 29.558594 L 32.722656 31.539062 L 31.890625 31.539062 L 31.890625 24.164062 L 32.722656 24.164062 L 32.722656 28.566406 L 36.957031 24.164062 L 38.03125 24.164062 L 34.871094 27.386719 Z M 38.167969 31.539062 " fill-opacity="1" fill-rule="nonzero"></path>
  </g>
  <g clip-path="url(#e3d6fde647)">
    <path fill="#545454" d="M 40.640625 24.164062 L 39.808594 24.164062 L 39.808594 31.539062 L 40.640625 31.539062 Z M 40.640625 24.164062 " fill-opacity="1" fill-rule="nonzero"></path>
  </g>
  <g clip-path="url(#43b0751a74)">
    <path fill="#545454" d="M 46.5 31.664062 C 44.257812 31.664062 42.75 29.90625 42.75 27.859375 C 42.75 25.816406 44.277344 24.039062 46.523438 24.039062 C 48.765625 24.039062 50.273438 25.796875 50.273438 27.839844 C 50.273438 29.882812 48.746094 31.664062 46.5 31.664062 Z M 46.5 24.804688 C 44.816406 24.804688 43.613281 26.15625 43.613281 27.839844 C 43.613281 29.527344 44.835938 30.894531 46.519531 30.894531 C 48.207031 30.894531 49.40625 29.546875 49.40625 27.859375 C 49.40625 26.175781 48.1875 24.804688 46.5 24.804688 Z M 46.5 24.804688 " fill-opacity="1" fill-rule="nonzero"></path>
  </g>
  <g clip-path="url(#671daa02d1)">
    <path fill="#545454" d="M 54.589844 31.539062 L 53.746094 31.539062 L 53.746094 24.933594 L 51.269531 24.933594 L 51.269531 24.164062 L 57.0625 24.164062 L 57.0625 24.933594 L 54.589844 24.933594 Z M 54.589844 31.539062 " fill-opacity="1" fill-rule="nonzero"></path>
  </g>
  <g clip-path="url(#22607dd4a8)">
    <path fill="#545454" d="M 64.816406 31.539062 L 63.921875 31.539062 L 63.058594 29.589844 L 59.046875 29.589844 L 58.171875 31.539062 L 57.316406 31.539062 L 60.679688 24.109375 L 61.457031 24.109375 Z M 61.054688 25.078125 L 59.371094 28.839844 L 62.730469 28.839844 Z M 61.054688 25.078125 " fill-opacity="1" fill-rule="nonzero"></path>
  </g>
</svg>
