<?xml version="1.0" encoding="UTF-8"?>
<svg xmlns="http://www.w3.org/2000/svg" width="29" height="61" viewBox="0 0 29 61" fill="none">
  <path d="M25.1402 2.19932C25.0089 1.45064 25.6235 0.792811 26.5128 0.730031C27.4021 0.667251 28.2294 1.22329 28.3607 1.97198L25.1402 2.19932ZM1.71804 56.0195C0.856535 55.7601 0.366286 54.9783 0.623035 54.2731L4.807 42.7825C5.06375 42.0774 5.97028 41.7161 6.83178 41.9755C7.69328 42.2348 8.18353 43.0167 7.92679 43.7219L4.2077 53.9357L16.6868 57.693C17.5483 57.9523 18.0386 58.7342 17.7818 59.4394C17.5251 60.1445 16.6186 60.5058 15.7571 60.2464L1.71804 56.0195ZM26.7504 2.08565C28.3607 1.97198 28.3607 1.97232 28.3608 1.97271C28.3608 1.9729 28.3609 1.97334 28.361 1.97373C28.3611 1.97451 28.3613 1.97547 28.3615 1.97663C28.3619 1.97894 28.3624 1.98201 28.3631 1.98584C28.3644 1.9935 28.3662 2.00418 28.3685 2.01785C28.373 2.0452 28.3795 2.08451 28.3875 2.13553C28.4037 2.23756 28.4263 2.3864 28.4535 2.57993C28.5077 2.96698 28.58 3.53289 28.6541 4.26063C28.8023 5.71595 28.958 7.81953 28.9917 10.4351C29.0592 15.6643 28.6395 22.9509 26.692 31.2002L23.4965 30.514C25.3937 22.4777 25.8021 15.3785 25.7365 10.2934C25.7037 7.75181 25.5525 5.71608 25.4105 4.3214C25.3395 3.62413 25.2708 3.08736 25.2204 2.72798C25.1952 2.5483 25.1746 2.41299 25.1606 2.32417C25.1536 2.27976 25.1482 2.24697 25.1447 2.22608C25.143 2.21563 25.1417 2.20815 25.1409 2.20368C25.1405 2.20145 25.1403 2.19996 25.1402 2.19924C25.1401 2.19887 25.1401 2.1987 25.1401 2.19871C25.1401 2.19872 25.1401 2.19887 25.1401 2.19888C25.1401 2.19907 25.1402 2.19932 26.7504 2.08565ZM26.692 31.2002C24.6829 39.7104 18.7108 45.9053 13.3253 49.9447C10.6258 51.9695 8.05079 53.4702 6.1469 54.4667C5.19412 54.9653 4.40705 55.3389 3.8534 55.5898C3.5765 55.7152 3.35777 55.8101 3.20564 55.8746C3.12958 55.9069 3.07014 55.9316 3.02839 55.9488C3.00751 55.9573 2.99105 55.964 2.97915 55.9688C2.97319 55.9713 2.96838 55.9732 2.96472 55.9747C2.96289 55.9754 2.96134 55.976 2.96009 55.9765C2.95947 55.9768 2.95875 55.9771 2.95843 55.9772C2.95778 55.9774 2.95721 55.9777 2.18292 54.7428C1.40864 53.5079 1.40821 53.5081 1.40785 53.5082C1.40783 53.5082 1.40754 53.5083 1.4075 53.5084C1.40741 53.5084 1.4076 53.5083 1.40808 53.5081C1.40904 53.5077 1.41114 53.5069 1.41437 53.5056C1.42082 53.503 1.43177 53.4985 1.44709 53.4922C1.47772 53.4796 1.52582 53.4597 1.59033 53.4323C1.71938 53.3776 1.91404 53.2932 2.166 53.1791C2.67006 52.9507 3.40261 52.6033 4.29738 52.135C6.08861 51.1975 8.52055 49.7804 11.0682 47.8695C16.1772 44.0375 21.6608 38.2896 23.4965 30.514L26.692 31.2002Z" fill="#463F39"></path>
</svg>
