<?xml version="1.0" encoding="UTF-8"?>
<svg xmlns="http://www.w3.org/2000/svg" width="29" height="61" viewBox="0 0 29 61" fill="none">
  <path d="M3.85983 2.19932C3.99107 1.45064 3.37651 0.792811 2.4872 0.730031C1.59788 0.667251 0.770558 1.22329 0.639328 1.97198L3.85983 2.19932ZM27.282 56.0195C28.1435 55.7601 28.6337 54.9783 28.377 54.2731L24.193 42.7825C23.9362 42.0774 23.0297 41.7161 22.1682 41.9755C21.3067 42.2348 20.8165 43.0167 21.0732 43.7219L24.7923 53.9357L12.3132 57.693C11.4517 57.9523 10.9614 58.7342 11.2182 59.4394C11.4749 60.1445 12.3814 60.5058 13.2429 60.2464L27.282 56.0195ZM2.24958 2.08565C0.639328 1.97198 0.639265 1.97232 0.639199 1.97271C0.639165 1.9729 0.639088 1.97334 0.639021 1.97373C0.638886 1.97451 0.638716 1.97547 0.638518 1.97663C0.638116 1.97894 0.637586 1.98201 0.636932 1.98584C0.635622 1.9935 0.633811 2.00418 0.631528 2.01785C0.626969 2.0452 0.620526 2.08451 0.612461 2.13553C0.596325 2.23756 0.57368 2.3864 0.546543 2.57993C0.492269 2.96698 0.420006 3.53289 0.345902 4.26063C0.197713 5.71595 0.0420499 7.81953 0.00830103 10.4351C-0.0591719 15.6643 0.360518 22.9509 2.30805 31.2002L5.50354 30.514C3.60629 22.4777 3.19788 15.3785 3.26349 10.2934C3.29629 7.75181 3.44746 5.71608 3.58948 4.3214C3.66048 3.62413 3.72916 3.08736 3.77956 2.72798C3.80475 2.5483 3.82537 2.41299 3.83942 2.32417C3.84644 2.27976 3.85182 2.24697 3.85531 2.22608C3.85705 2.21563 3.85832 2.20815 3.85908 2.20368C3.85946 2.20145 3.85972 2.19996 3.85985 2.19924C3.85991 2.19887 3.85994 2.1987 3.85994 2.19871C3.85994 2.19872 3.85991 2.19887 3.85991 2.19888C3.85987 2.19907 3.85983 2.19932 2.24958 2.08565ZM2.30805 31.2002C4.31715 39.7104 10.2892 45.9053 15.6747 49.9447C18.3742 51.9695 20.9492 53.4702 22.8531 54.4667C23.8059 54.9653 24.5929 55.3389 25.1466 55.5898C25.4235 55.7152 25.6422 55.8101 25.7944 55.8746C25.8704 55.9069 25.9299 55.9316 25.9716 55.9488C25.9925 55.9573 26.0089 55.964 26.0209 55.9688C26.0268 55.9713 26.0316 55.9732 26.0353 55.9747C26.0371 55.9754 26.0387 55.976 26.0399 55.9765C26.0405 55.9768 26.0413 55.9771 26.0416 55.9772C26.0422 55.9774 26.0428 55.9777 26.8171 54.7428C27.5914 53.5079 27.5918 53.5081 27.5921 53.5082C27.5922 53.5082 27.5925 53.5083 27.5925 53.5084C27.5926 53.5084 27.5924 53.5083 27.5919 53.5081C27.591 53.5077 27.5889 53.5069 27.5856 53.5056C27.5792 53.503 27.5682 53.4985 27.5529 53.4922C27.5223 53.4796 27.4742 53.4597 27.4097 53.4323C27.2806 53.3776 27.086 53.2932 26.834 53.1791C26.3299 52.9507 25.5974 52.6033 24.7026 52.135C22.9114 51.1975 20.4795 49.7804 17.9318 47.8695C12.8228 44.0375 7.33921 38.2896 5.50354 30.514L2.30805 31.2002Z" fill="#463F39"></path>
</svg>
